<?xml version="1.0" standalone="no"?>
<!DOCTYPE svg PUBLIC "-//W3C//DTD SVG 20010904//EN"
 "http://www.w3.org/TR/2001/REC-SVG-20010904/DTD/svg10.dtd">
<svg version="1.0" xmlns="http://www.w3.org/2000/svg"
 width="267.000000pt" height="189.000000pt" viewBox="0 0 267.000000 189.000000"
 preserveAspectRatio="xMidYMid meet">

<g transform="translate(0.000000,189.000000) scale(0.100000,-0.100000)"
fill="#000000" stroke="none">
<path d="M2567 1876 c-20 -8 -45 -20 -54 -27 -9 -8 -39 -14 -67 -15 -43 -1
-131 -28 -172 -52 -49 -30 -117 -89 -129 -113 -19 -36 -19 -102 -1 -137 17
-32 56 -70 56 -54 0 7 4 12 9 12 6 0 8 -9 6 -21 -3 -15 0 -19 10 -15 8 3 17 1
20 -4 4 -6 1 -10 -4 -10 -6 0 -11 -4 -11 -10 0 -14 33 -13 48 2 7 7 12 20 12
30 0 23 12 23 33 0 23 -26 21 -68 -3 -85 -18 -13 -19 -15 -5 -21 9 -3 31 -6
48 -7 l32 -1 -32 -10 c-18 -6 -33 -15 -33 -19 0 -5 -7 -6 -15 -3 -8 4 -15 1
-15 -4 0 -16 50 -52 73 -52 15 0 17 -3 8 -14 -12 -14 -11 -66 1 -66 4 0 8 -5
8 -11 0 -5 -4 -7 -10 -4 -17 10 -11 -18 10 -53 12 -20 25 -30 32 -26 6 4 8 3
5 -3 -4 -6 0 -14 9 -17 10 -4 13 -2 9 7 -4 6 1 3 10 -8 9 -11 18 -19 21 -17 2
2 8 2 12 -1 4 -2 1 -2 -5 -1 -7 2 -13 -2 -13 -10 0 -21 11 -26 26 -11 8 8 29
12 49 10 19 -2 33 0 30 4 -7 12 52 64 64 57 10 -7 15 8 14 41 -1 7 3 10 9 7
17 -11 6 98 -13 115 -24 23 -54 87 -70 148 -12 50 -12 54 9 73 24 23 37 62 29
84 -4 10 2 16 21 18 l27 3 3 153 3 152 -33 0 c-18 -1 -50 -7 -71 -14z m-227
-177 c22 -8 25 -14 22 -44 -3 -25 0 -35 9 -35 10 -1 9 -4 -3 -11 -9 -5 -15
-16 -12 -23 3 -8 -6 -22 -21 -33 -15 -10 -34 -25 -43 -33 -11 -10 -32 -14 -59
-12 l-43 3 0 59 c0 33 5 69 10 82 13 28 80 69 100 62 8 -4 26 -10 40 -15z m69
-69 c-6 -5 -19 -6 -27 -2 -13 4 -12 7 4 12 23 9 41 1 23 -10z m95 -57 c26 -83
26 -83 16 -83 -5 0 -7 -6 -4 -13 6 -18 -31 -99 -41 -89 -4 4 -5 -2 -1 -12 5
-16 4 -17 -8 -7 -9 8 -24 10 -38 6 -13 -4 -20 -4 -16 0 11 12 -18 34 -38 29
-16 -4 -19 1 -20 31 0 33 1 35 32 35 44 0 82 18 90 43 7 21 -9 37 -38 37 -26
0 -32 20 -6 21 13 0 17 3 11 6 -17 6 -16 18 3 37 27 27 39 18 58 -41z m90 11
c3 -8 2 -12 -4 -9 -6 3 -10 10 -10 16 0 14 7 11 14 -7z m-236 -281 c-10 -2
-18 -9 -18 -15 0 -6 -3 -9 -6 -5 -10 10 6 27 24 26 15 -1 15 -2 0 -6z m42 -93
c0 -5 -2 -10 -4 -10 -3 0 -8 5 -11 10 -3 6 -1 10 4 10 6 0 11 -4 11 -10z"/>
<path d="M1331 1674 c-6 -22 -11 -49 -11 -61 l0 -22 -277 -3 c-260 -3 -280 -4
-305 -23 -59 -43 -72 -123 -31 -179 31 -43 53 -46 283 -46 l220 0 0 -29 c0
-66 89 -91 170 -48 112 59 146 196 62 244 l-29 17 30 42 c36 52 49 127 22 138
-10 3 -20 4 -23 1 -3 -3 0 -5 6 -5 18 0 14 -47 -8 -90 -11 -21 -36 -51 -55
-66 -44 -33 -44 -44 -2 -44 94 0 104 -126 15 -194 -37 -27 -105 -49 -113 -36
-5 8 7 76 21 123 6 19 44 23 75 7 13 -8 19 -7 19 0 0 13 -21 22 -55 24 -14 0
-25 6 -25 13 0 31 53 173 81 218 23 36 26 45 10 31 -11 -10 -32 -41 -46 -69
-28 -56 -30 -52 -14 23 14 65 -3 94 -20 34z m-514 -165 c7 -35 25 -28 19 7 -4
21 -1 25 17 22 17 -2 22 -10 24 -33 0 -16 2 -33 2 -37 1 -5 10 1 21 12 30 30
69 25 83 -10 4 -8 6 4 4 28 -2 29 1 42 10 42 7 0 13 -12 13 -26 0 -15 4 -23
11 -18 6 3 9 15 6 25 -6 22 12 25 32 7 11 -10 13 -10 7 0 -4 7 -1 12 8 12 12
0 16 -10 16 -40 0 -28 -4 -40 -14 -40 -8 0 -17 -12 -19 -27 -2 -16 -5 1 -7 37
l-3 65 -7 -50 c-4 -27 -8 -44 -8 -37 -1 6 -9 12 -18 12 -12 0 -15 -8 -12 -33
3 -30 1 -32 -26 -34 -19 0 -24 2 -15 7 7 5 17 6 22 3 5 -3 7 5 5 18 -2 19 -10
24 -35 26 -30 1 -32 0 -23 -20 10 -21 10 -21 -6 1 -21 28 -37 29 -29 1 5 -15
4 -19 -4 -15 -6 4 -11 14 -11 21 0 8 -12 17 -27 20 -16 4 -36 10 -45 16 -27
14 -28 12 -28 -30 0 -22 -3 -42 -7 -44 -6 -4 -9 133 -3 150 0 0 9 -1 21 -4 12
-4 22 -17 26 -34z m382 13 c-1 -9 -1 -26 0 -36 1 -19 2 -19 14 -2 9 12 23 17
42 14 28 -3 30 -6 32 -44 1 -49 -8 -67 -30 -58 -9 3 -15 10 -12 14 3 4 -3 14
-12 21 -9 8 -14 9 -11 4 4 -6 -3 -11 -15 -12 -12 0 -16 1 -9 4 6 3 12 12 11
21 0 10 -3 12 -6 5 -8 -21 -55 17 -49 40 4 18 3 17 -20 -4 -29 -27 -36 -22
-28 19 6 28 9 30 51 30 35 0 44 -3 42 -16z m-126 -129 c-7 -2 -19 -2 -25 0 -7
3 -2 5 12 5 14 0 19 -2 13 -5z m196 -65 c-4 -24 -8 -47 -9 -52 0 -5 -7 -3 -15
4 -27 23 -16 90 15 90 15 0 16 -5 9 -42z"/>
<path d="M1260 1414 c0 -8 5 -12 10 -9 6 4 8 11 5 16 -9 14 -15 11 -15 -7z"/>
<path d="M357 1670 c-16 -5 -34 -13 -41 -19 -7 -6 -17 -7 -21 -3 -5 4 -5 1 -1
-5 4 -7 3 -21 -3 -30 -23 -44 -21 -112 5 -142 5 -5 104 99 104 110 0 18 2 24
12 37 6 6 7 12 4 12 -4 0 -2 9 4 20 6 12 7 20 1 20 -5 0 -15 2 -23 4 -7 2 -26
0 -41 -4z m19 -73 c-4 -15 -2 -16 10 -6 12 10 13 9 8 -4 -3 -9 -27 -30 -53
-47 -54 -34 -77 -40 -38 -10 14 11 30 20 35 20 18 0 21 28 4 36 -9 4 -21 6
-25 5 -5 -1 -7 6 -5 14 2 9 7 15 11 13 5 -2 13 6 19 16 11 19 11 19 25 0 8
-10 12 -27 9 -37z"/>
<path d="M1897 1649 c-9 -17 -15 -35 -11 -40 3 -5 -23 -9 -60 -9 -36 0 -68 -4
-71 -10 -4 -6 18 -10 59 -10 74 0 73 2 55 -78 -6 -31 -20 -59 -36 -73 l-26
-24 7 38 c8 45 -3 48 -26 7 -22 -38 -42 -41 -27 -4 14 39 4 41 -26 5 -33 -39
-42 -39 -47 -2 -2 17 -1 28 4 25 4 -3 8 1 8 9 0 19 -38 29 -60 17 -10 -5 -27
-25 -39 -45 -20 -35 -46 -53 -58 -41 -4 3 3 16 15 29 25 27 29 57 7 57 -22 0
-47 -45 -43 -77 4 -33 31 -42 57 -19 10 9 25 14 35 10 9 -3 23 -1 31 6 11 10
18 9 30 -4 12 -12 21 -13 35 -6 13 7 21 7 25 -1 4 -6 18 -8 31 -5 14 4 24 2
24 -4 0 -14 33 -13 49 3 10 10 11 1 6 -48 -3 -33 -9 -72 -11 -87 -3 -16 -1
-28 4 -28 6 0 24 77 42 170 l33 170 66 0 c36 0 73 5 81 10 10 7 -9 10 -63 10
l-77 0 6 40 c8 48 -4 52 -29 9z m-227 -172 c0 -8 -9 -22 -19 -31 -18 -17 -19
-16 -17 7 0 14 4 23 9 20 4 -2 7 1 7 6 0 6 5 11 10 11 6 0 10 -6 10 -13z"/>
<path d="M458 1569 c4 -35 2 -38 -24 -41 -31 -3 -48 -38 -20 -38 19 0 22 -40
4 -58 -28 -28 23 -11 57 19 19 17 46 32 60 33 14 0 25 4 25 9 0 10 -38 9 -60
-3 -15 -8 -17 -6 -13 11 3 11 11 18 17 16 6 -2 19 0 28 4 11 6 22 4 32 -6 16
-17 30 -20 21 -5 -3 5 7 5 25 -1 16 -6 30 -18 30 -27 0 -22 10 -9 15 20 6 34
-31 66 -65 57 l-25 -7 27 -1 c15 -1 34 -8 42 -17 19 -19 21 -28 4 -17 -17 10
-38 15 -65 15 -13 0 -23 3 -24 7 0 3 -2 16 -5 29 -2 14 0 21 6 17 6 -3 7 1 4
9 -5 13 -9 12 -24 -7 l-18 -22 -29 21 -28 21 3 -38z m82 -4 c0 -2 -10 -9 -22
-15 -22 -11 -22 -10 -4 4 21 17 26 19 26 11z"/>
<path d="M1930 1486 c-6 -8 -10 -25 -8 -38 2 -17 9 -22 26 -21 30 4 28 -7 -13
-58 -40 -50 -51 -89 -35 -118 26 -50 63 -10 81 89 10 58 16 69 50 95 22 16 39
33 39 37 0 5 -15 -3 -34 -17 l-35 -26 -3 38 c-4 38 -4 38 -15 12 -12 -28 -50
-52 -39 -24 3 8 9 22 12 30 8 19 -10 20 -26 1z m24 -143 c-12 -57 -26 -93 -35
-93 -16 0 -10 54 11 88 24 39 32 41 24 5z"/>
<path d="M322 1390 c0 -14 2 -19 5 -12 2 6 2 18 0 25 -3 6 -5 1 -5 -13z"/>
<path d="M352 1390 c0 -14 2 -19 5 -12 2 6 2 18 0 25 -3 6 -5 1 -5 -13z"/>
<path d="M381 1394 c0 -11 3 -14 6 -6 3 7 2 16 -1 19 -3 4 -6 -2 -5 -13z"/>
<path d="M442 1390 c0 -14 2 -19 5 -12 2 6 2 18 0 25 -3 6 -5 1 -5 -13z"/>
<path d="M502 1390 c0 -14 2 -19 5 -12 2 6 2 18 0 25 -3 6 -5 1 -5 -13z"/>
<path d="M537 1404 c-4 -4 -7 -14 -7 -23 0 -11 3 -12 11 -4 6 6 10 16 7 23 -2
6 -7 8 -11 4z"/>
<path d="M601 1387 c1 -17 2 -18 6 -4 4 14 8 15 18 7 9 -8 14 -7 18 3 3 8 -4
14 -19 15 -19 1 -24 -3 -23 -21z"/>
<path d="M421 1384 c0 -11 3 -14 6 -6 3 7 2 16 -1 19 -3 4 -6 -2 -5 -13z"/>
<path d="M572 1384 c-7 -8 -8 -14 -3 -14 10 0 25 19 20 25 -2 1 -10 -3 -17
-11z"/>
<path d="M430 1325 c1 -26 2 -28 11 -12 8 14 8 22 0 30 -8 8 -11 3 -11 -18z"/>
<path d="M1512 1338 c4 -10 46 -14 156 -16 131 -2 152 0 152 13 0 13 -23 15
-156 15 -120 0 -155 -3 -152 -12z"/>
<path d="M325 1320 c-4 -6 -2 -9 4 -8 5 2 26 -12 45 -30 22 -20 43 -32 53 -29
14 4 13 5 -4 6 -38 2 -26 16 15 17 20 1 41 -4 45 -10 6 -7 7 -6 4 4 -2 10 -22
17 -55 21 -29 4 -63 14 -77 23 -15 10 -26 12 -30 6z"/>
<path d="M547 1323 c-12 -12 -7 -22 8 -17 8 4 15 10 15 15 0 11 -14 12 -23 2z"/>
<path d="M505 1301 c-19 -8 -19 -8 1 -19 17 -9 20 -7 20 9 0 10 0 19 -1 18 0
0 -9 -4 -20 -8z"/>
<path d="M2308 1189 c-36 -19 -38 -22 -38 -69 0 -45 -28 -114 -87 -219 -1 -2
-14 4 -29 14 -33 21 -48 5 -29 -32 9 -16 10 -36 4 -61 -5 -20 -9 -55 -9 -77 0
-54 -25 -143 -48 -175 -22 -30 -38 -95 -20 -84 8 5 9 2 5 -10 -4 -10 -7 -20
-7 -22 0 -2 -6 -4 -14 -4 -8 0 -20 13 -27 29 -7 17 -25 35 -38 41 -21 10 -27
8 -39 -7 -9 -12 -13 -13 -10 -3 3 10 -14 21 -59 37 -35 12 -92 39 -126 60 -88
54 -138 75 -164 68 -35 -8 -133 -151 -146 -212 -6 -29 9 -30 19 -1 3 11 31 46
61 76 l55 54 42 -40 c22 -22 91 -74 152 -114 68 -46 109 -79 106 -87 -3 -9 0
-11 7 -6 14 8 61 -2 61 -14 0 -4 -9 -18 -20 -31 -11 -13 -20 -27 -20 -31 0
-12 -1682 -11 -1700 1 -17 11 -15 12 95 15 39 1 86 5 105 9 54 11 190 15 184
5 -3 -5 0 -9 5 -9 6 0 11 5 11 12 0 6 9 3 20 -7 17 -15 23 -16 33 -5 6 7 8 10
2 8 -5 -3 -15 0 -22 7 -15 16 24 25 111 25 l61 0 -2 101 c-2 59 1 98 6 94 5
-3 13 0 17 6 4 7 3 9 -4 5 -6 -3 -13 -2 -16 3 -7 11 28 21 79 21 26 0 35 -3
27 -9 -10 -6 -8 -10 9 -14 13 -4 25 -5 27 -2 2 2 1 28 -3 59 -7 52 -9 56 -34
57 -14 1 -29 1 -33 0 -4 0 -5 13 -1 29 4 23 2 30 -11 30 -9 0 -16 8 -16 18 -1
25 -33 60 -61 64 -13 1 -30 10 -37 18 -10 11 -15 12 -18 3 -13 -31 -24 -8 -23
50 l1 62 12 -45 c9 -33 14 -40 19 -27 3 9 4 31 0 47 l-5 30 155 0 c171 0 187
5 187 60 0 52 -26 60 -193 60 -91 0 -156 -4 -169 -11 -18 -10 -24 -8 -38 8
-19 24 -53 43 -75 43 -36 0 -86 -34 -110 -74 -28 -48 -59 -156 -47 -168 4 -4
16 24 26 62 18 72 40 109 25 42 -4 -20 -9 -68 -10 -105 -2 -67 -2 -68 -21 -47
-10 11 -23 20 -27 20 -18 0 -21 -33 -5 -51 9 -9 14 -26 11 -36 -4 -16 -5 -16
-6 0 0 9 -8 17 -16 17 -8 0 -15 7 -15 16 0 11 -5 14 -16 10 -9 -3 -20 -6 -25
-6 -6 0 -17 -16 -25 -35 -8 -19 -19 -35 -25 -35 -7 0 -9 -10 -5 -26 5 -18 3
-24 -5 -19 -8 6 -8 2 -1 -12 6 -11 8 -30 5 -42 -4 -18 -11 -21 -29 -17 -28 7
-40 -9 -22 -32 11 -15 11 -16 -3 -4 -13 10 -19 9 -29 -3 -10 -12 -10 -18 1
-32 8 -9 9 -14 3 -10 -25 15 -33 -63 -10 -82 11 -9 20 -9 35 -2 24 13 44 14
36 2 -3 -5 0 -13 6 -17 8 -4 7 -9 -2 -15 -12 -8 -12 -11 1 -18 15 -10 17 -9
-36 -26 -8 -3 -12 -1 -9 4 3 5 0 13 -6 16 -7 5 -10 0 -7 -11 2 -15 12 -19 43
-19 38 0 40 2 43 34 2 20 -2 37 -10 42 -10 7 -10 9 0 9 6 0 12 10 12 23 0 17
-2 19 -9 8 -16 -24 -43 6 -39 43 2 22 11 35 30 44 19 9 28 21 28 37 0 13 5 27
10 30 6 4 10 -17 10 -54 0 -51 3 -61 18 -61 15 0 17 8 14 61 -3 40 0 59 6 55
6 -4 12 6 15 21 6 43 7 -85 0 -154 -5 -61 -23 -89 -23 -38 0 14 -4 25 -8 25
-8 0 -8 -11 -2 -90 l3 -35 7 35 7 35 2 -32 c1 -22 6 -33 16 -33 8 0 15 -5 15
-11 0 -7 -12 -9 -34 -5 -21 4 -43 1 -61 -8 -16 -8 -33 -12 -38 -9 -5 3 -26 5
-47 5 -25 -1 -40 4 -44 14 -3 8 -13 13 -23 13 -17 -1 -17 -2 0 -6 11 -3 16
-10 13 -20 -3 -8 -6 -17 -6 -19 0 -2 -5 -4 -11 -4 -8 0 -8 4 1 14 9 12 8 15
-7 15 -24 0 -45 5 -61 15 -8 5 -19 -1 -31 -16 -18 -21 -18 -24 -3 -30 14 -6
14 -7 -3 -8 l-20 -1 20 -15 c19 -15 17 -16 -25 -10 -32 4 -41 3 -30 -4 8 -5
30 -10 48 -10 44 0 87 -26 108 -66 l17 -32 16 31 c18 37 63 57 89 41 29 -18
39 -61 21 -92 -12 -23 -22 -27 -57 -27 -37 0 -41 -2 -38 -21 3 -12 -2 -34 -9
-48 l-14 -26 1240 0 1239 0 0 488 c0 481 0 488 -20 488 -11 0 -20 -6 -20 -13
0 -7 -6 -13 -12 -13 -7 0 -23 -3 -35 -6 -14 -4 -23 -2 -23 5 0 7 5 9 12 5 8
-5 9 2 5 27 -4 20 -3 29 2 21 7 -11 9 -10 15 3 3 9 11 13 17 9 7 -4 9 -3 5 4
-3 6 -2 13 3 16 5 3 11 -3 14 -13 3 -13 0 -18 -12 -16 -15 2 -31 -11 -31 -27
0 -5 7 -8 15 -8 8 0 15 5 15 10 0 6 7 10 16 10 10 0 14 7 12 23 -2 13 2 21 10
20 6 -2 12 1 12 5 0 4 -6 14 -12 21 -7 8 -8 11 -3 8 6 -3 12 6 13 21 2 26 1
25 -23 -10 -14 -21 -39 -45 -55 -53 -17 -9 -30 -20 -30 -26 0 -6 -4 -8 -8 -5
-5 3 -6 -8 -4 -25 2 -16 0 -29 -6 -29 -6 0 -8 10 -5 23 4 20 2 19 -21 -8 -21
-24 -26 -26 -26 -12 0 11 -5 15 -11 11 -6 -3 -14 -3 -18 2 -3 5 -15 14 -26 20
-20 11 -31 54 -14 54 5 0 9 -9 9 -20 0 -11 5 -20 11 -20 5 0 7 5 4 10 -3 6 -4
10 0 10 3 0 10 -12 16 -27 6 -16 13 -23 15 -17 3 6 -2 26 -10 45 -9 19 -15 28
-16 21 0 -7 -5 -10 -11 -7 -6 4 -8 9 -5 12 2 3 -13 21 -35 41 -21 20 -39 42
-39 50 0 18 -32 11 -37 -8 -4 -12 -3 -12 5 -1 7 9 12 10 16 2 4 -6 3 -11 -3
-11 -6 0 -8 -8 -5 -17 5 -15 3 -15 -10 1 -19 23 -20 35 -6 70 6 17 17 26 30
26 12 0 18 5 15 10 -8 13 -14 12 -57 -11z m103 -153 c-5 -6 -10 -15 -10 -21
-1 -15 -26 -12 -27 3 -3 25 -5 27 -14 12 -8 -13 -10 -12 -10 4 0 13 5 16 18
12 14 -5 13 -3 -3 9 -18 14 -20 14 -23 1 -2 -9 -8 -16 -13 -16 -6 0 -7 5 -4
10 3 6 1 10 -4 10 -6 0 -11 5 -11 11 0 6 6 9 14 6 17 -7 39 16 29 29 -4 5 9
-6 29 -25 24 -22 34 -38 29 -45z m-1783 11 c26 -21 43 -69 52 -150 9 -76 8
-83 -10 -97 -14 -10 -21 -28 -22 -53 -1 -22 -6 -36 -12 -34 -6 2 -11 20 -10
40 0 29 -3 37 -18 37 -10 0 -18 -6 -18 -14 0 -8 -14 -15 -34 -18 -46 -5 -60 0
-46 17 8 10 7 15 -8 19 -20 7 -20 11 9 164 13 65 52 116 83 106 11 -4 27 -11
34 -17z m165 -49 c9 1 17 -6 17 -14 0 -8 -4 -13 -9 -9 -5 3 -12 1 -15 -4 -8
-12 -46 -2 -46 13 0 6 -5 4 -10 -4 -8 -12 -10 -11 -10 8 0 19 4 22 28 16 15
-3 35 -6 45 -6z m187 -4 c45 -3 50 -4 50 -12 0 -5 -20 -9 -45 -9 -40 -1 -45 2
-45 21 0 11 4 17 8 11 4 -5 18 -11 32 -11z m-87 -10 c-4 -12 -8 -12 -21 -2
-13 11 -15 10 -10 -3 5 -13 2 -16 -13 -12 -36 10 -24 28 19 29 22 1 29 -2 25
-12z m31 1 c3 -8 1 -15 -4 -15 -6 0 -10 7 -10 15 0 8 2 15 4 15 2 0 6 -7 10
-15z m-220 -191 c25 -10 19 -34 -9 -34 -24 0 -34 18 -18 33 8 8 8 8 27 1z m66
-154 c0 -5 -4 -10 -10 -10 -5 0 -10 5 -10 10 0 6 5 10 10 10 6 0 10 -4 10 -10z
m-296 -40 l43 0 6 -97 c4 -54 7 -115 7 -135 0 -37 0 -38 -38 -36 -22 0 -44 -2
-50 -6 -9 -5 -12 13 -13 66 -1 40 -2 114 -3 163 -2 50 -1 80 1 68 4 -20 11
-23 47 -23z m366 15 c0 -15 -43 -12 -48 3 -3 10 4 13 22 10 15 -2 26 -7 26
-13z m1469 -92 c2 -2 -25 -3 -61 -3 l-66 0 10 39 10 39 52 -36 c28 -20 53 -37
55 -39z m-2009 43 c0 -2 -7 -9 -15 -16 -13 -11 -14 -10 -9 4 5 14 24 23 24 12z
m388 -28 c8 -10 2 -13 -25 -15 -29 -1 -32 1 -22 13 14 17 33 18 47 2z m-134
-126 c-6 -22 -9 -13 -14 43 -4 39 -4 75 -1 80 10 17 23 -95 15 -123z m1346 88
c17 -15 30 -30 30 -32 0 -2 -19 -2 -42 0 -52 5 -112 52 -81 63 27 11 60 0 93
-31z m-1652 -61 c-18 -11 -20 -6 -12 37 l7 39 9 -34 c7 -25 6 -36 -4 -42z
m422 21 c0 -5 -5 -10 -11 -10 -5 0 -7 5 -4 10 3 6 8 10 11 10 2 0 4 -4 4 -10z
m7 -42 c12 1 28 3 34 4 12 3 31 -60 23 -74 -7 -10 -105 -10 -121 0 -18 12 7
84 27 76 8 -4 25 -6 37 -6z m-105 -70 c-9 -9 -12 -7 -12 12 0 19 3 21 12 12 9
-9 9 -15 0 -24z m576 -156 c30 -39 2 -102 -46 -102 -61 0 -84 72 -35 109 28
23 59 20 81 -7z m175 19 c4 -1 7 -6 7 -12 0 -5 -4 -8 -9 -4 -5 3 -13 1 -16 -5
-4 -6 -1 -9 6 -8 6 2 13 -2 15 -7 3 -6 -14 -9 -41 -7 -25 2 -45 7 -45 12 0 4
11 6 25 5 14 -2 23 1 20 5 -7 12 -48 8 -57 -4 -4 -6 -10 -7 -14 -3 -20 20 42
36 109 28z m82 -9 c3 -8 3 -18 -1 -23 -9 -15 -24 -10 -25 9 0 14 -2 14 -8 -3
-7 -18 -8 -17 -13 7 -4 22 -1 25 18 24 13 0 26 -7 29 -14z m70 0 c3 -8 3 -18
-1 -23 -9 -15 -24 -10 -25 9 0 14 -2 14 -8 -3 -7 -18 -8 -17 -13 7 -4 22 -1
25 18 24 13 0 26 -7 29 -14z m63 -10 c-10 -12 -10 -14 0 -8 6 4 12 2 12 -3 0
-6 -7 -11 -15 -11 -15 0 -21 31 -9 43 14 13 24 -6 12 -21z m81 -14 c1 -11 -46
-10 -53 0 -6 11 6 28 24 34 13 4 27 -12 29 -34z m-422 -5 c-3 -10 -5 -4 -5 12
0 17 2 24 5 18 2 -7 2 -21 0 -30z m313 17 c0 -11 -2 -20 -4 -20 -2 0 -6 9 -9
20 -3 11 -1 20 4 20 5 0 9 -9 9 -20z m-1046 -25 c29 -4 37 -2 26 5 -19 12 -8
13 24 0 16 -6 26 -17 26 -30 0 -24 -20 -27 -21 -2 -1 16 -2 16 -6 0 -4 -15
-17 -18 -84 -18 -43 0 -79 2 -79 4 0 2 -3 11 -6 19 -3 8 2 22 11 30 12 13 22
14 42 6 14 -5 44 -12 67 -14z m793 -35 c-3 -11 -1 -20 4 -20 8 0 13 15 10 33
-2 11 7 9 37 -9 25 -15 25 -15 8 0 -17 13 -17 16 -4 16 19 0 27 -17 20 -43 -4
-17 -5 -17 -19 0 -8 10 -11 11 -7 3 7 -13 6 -13 -11 0 -11 9 -16 10 -11 3 5
-9 -2 -13 -25 -13 -26 0 -30 2 -19 15 6 8 9 19 5 25 -3 5 -1 10 6 10 6 0 9 -8
6 -20z m141 -5 c-12 -27 -42 -26 -46 2 -2 16 3 20 27 21 28 1 29 -1 19 -23z
m36 3 c-5 -23 -4 -23 6 0 11 27 35 25 35 -4 0 -29 -49 -26 -53 4 -2 12 1 22 6
22 6 0 8 -10 6 -22z m98 -2 c7 4 5 10 -3 16 -12 8 -12 9 0 6 8 -2 15 -14 16
-27 2 -19 -2 -21 -24 -16 -33 8 -33 9 -25 30 6 16 8 16 16 1 5 -9 14 -14 20
-10z m47 -3 c0 -25 -1 -25 -8 -8 -5 11 -7 23 -4 28 8 14 13 7 12 -20z m36 -1
c1 -12 -4 -22 -12 -22 -16 0 -17 16 -2 26 8 4 7 9 -2 16 -12 8 -12 9 0 6 8 -2
15 -14 16 -26z m-418 -19 c-3 -10 -5 -4 -5 12 0 17 2 24 5 18 2 -7 2 -21 0
-30z m28 28 c3 -5 1 -12 -5 -16 -5 -3 -10 1 -10 9 0 18 6 21 15 7z"/>
<path d="M2355 1081 c-3 -6 1 -11 9 -11 14 0 20 -12 17 -32 0 -5 4 -8 9 -8 17
0 11 26 -9 44 -12 11 -21 14 -26 7z"/>
<path d="M455 564 c13 -14 14 -19 3 -25 -9 -6 -4 -9 15 -9 22 0 27 5 27 23 0
18 -6 23 -31 25 -29 2 -30 1 -14 -14z"/>
<path d="M460 501 c0 -17 32 -35 43 -24 3 2 3 13 0 24 -7 25 -43 25 -43 0z"/>
<path d="M440 435 c0 -8 7 -15 15 -15 8 0 15 7 15 15 0 8 -7 15 -15 15 -8 0
-15 -7 -15 -15z"/>
<path d="M480 435 c0 -8 9 -15 20 -15 11 0 20 7 20 15 0 8 -9 15 -20 15 -11 0
-20 -7 -20 -15z"/>
<path d="M442 398 c6 -18 28 -21 28 -4 0 9 -7 16 -16 16 -9 0 -14 -5 -12 -12z"/>
<path d="M1074 176 c-8 -22 14 -56 36 -56 11 0 20 5 20 11 0 6 -7 9 -15 6 -17
-7 -31 11 -27 36 4 20 -6 23 -14 3z"/>
<path d="M1585 190 c3 -5 11 -10 16 -10 6 0 7 5 4 10 -3 6 -11 10 -16 10 -6 0
-7 -4 -4 -10z"/>
<path d="M360 151 c0 -14 5 -19 15 -14 17 6 15 25 -3 31 -7 2 -12 -5 -12 -17z"/>
<path d="M1361 124 c0 -11 3 -14 6 -6 3 7 2 16 -1 19 -3 4 -6 -2 -5 -13z"/>
<path d="M1161 1195 c1 -19 18 -51 18 -35 0 8 -4 22 -9 30 -5 8 -9 11 -9 5z"/>
<path d="M1352 1175 c0 -16 2 -22 5 -12 2 9 2 23 0 30 -3 6 -5 -1 -5 -18z"/>
<path d="M1372 1175 c0 -16 2 -22 5 -12 2 9 2 23 0 30 -3 6 -5 -1 -5 -18z"/>
<path d="M1231 1164 c0 -11 3 -14 6 -6 3 7 2 16 -1 19 -3 4 -6 -2 -5 -13z"/>
<path d="M1251 1164 c0 -11 3 -14 6 -6 3 7 2 16 -1 19 -3 4 -6 -2 -5 -13z"/>
<path d="M1272 1155 c0 -16 2 -22 5 -12 2 9 2 23 0 30 -3 6 -5 -1 -5 -18z"/>
<path d="M1291 1164 c0 -11 3 -14 6 -6 3 7 2 16 -1 19 -3 4 -6 -2 -5 -13z"/>
<path d="M1311 1164 c0 -11 3 -14 6 -6 3 7 2 16 -1 19 -3 4 -6 -2 -5 -13z"/>
<path d="M1391 1164 c0 -11 3 -14 6 -6 3 7 2 16 -1 19 -3 4 -6 -2 -5 -13z"/>
<path d="M1411 1164 c0 -11 3 -14 6 -6 3 7 2 16 -1 19 -3 4 -6 -2 -5 -13z"/>
<path d="M1432 1160 c0 -14 4 -38 8 -55 7 -29 8 -29 10 -5 1 14 4 38 6 55 2
19 0 25 -5 16 -7 -11 -9 -11 -14 0 -3 8 -5 3 -5 -11z"/>
<path d="M1471 1164 c0 -11 3 -14 6 -6 3 7 2 16 -1 19 -3 4 -6 -2 -5 -13z"/>
<path d="M2345 1169 c-4 -6 -5 -12 -2 -15 2 -3 7 2 10 11 7 17 1 20 -8 4z"/>
<path d="M1162 1105 c0 -16 2 -22 5 -12 2 9 2 23 0 30 -3 6 -5 -1 -5 -18z"/>
<path d="M1181 1114 c0 -11 3 -14 6 -6 3 7 2 16 -1 19 -3 4 -6 -2 -5 -13z"/>
<path d="M1420 1103 c0 -15 -2 -16 -10 -3 -7 12 -10 8 -10 -15 0 -21 3 -26 9
-16 7 11 9 11 13 0 3 -8 5 1 6 19 0 17 -1 32 -4 32 -2 0 -4 -8 -4 -17z"/>
<path d="M1201 1094 c0 -11 3 -14 6 -6 3 7 2 16 -1 19 -3 4 -6 -2 -5 -13z"/>
<path d="M1221 1094 c0 -11 3 -14 6 -6 3 7 2 16 -1 19 -3 4 -6 -2 -5 -13z"/>
<path d="M1256 1101 c-14 -5 -16 -10 -8 -15 7 -4 19 0 28 8 17 17 11 19 -20 7z"/>
<path d="M1321 1094 c0 -11 3 -14 6 -6 3 7 2 16 -1 19 -3 4 -6 -2 -5 -13z"/>
<path d="M1341 1094 c0 -11 3 -14 6 -6 3 7 2 16 -1 19 -3 4 -6 -2 -5 -13z"/>
<path d="M1381 1094 c0 -11 3 -14 6 -6 3 7 2 16 -1 19 -3 4 -6 -2 -5 -13z"/>
<path d="M1461 1094 c0 -11 3 -14 6 -6 3 7 2 16 -1 19 -3 4 -6 -2 -5 -13z"/>
<path d="M1490 1100 c0 -5 5 -10 11 -10 5 0 7 5 4 10 -3 6 -8 10 -11 10 -2 0
-4 -4 -4 -10z"/>
<path d="M1161 1055 c1 -19 18 -51 18 -35 0 8 -4 22 -9 30 -5 8 -9 11 -9 5z"/>
<path d="M1572 1035 c0 -16 2 -22 5 -12 2 9 2 23 0 30 -3 6 -5 -1 -5 -18z"/>
<path d="M1105 1029 c-4 -6 -5 -12 -2 -15 2 -3 7 2 10 11 7 17 1 20 -8 4z"/>
<path d="M1231 1024 c0 -11 3 -14 6 -6 3 7 2 16 -1 19 -3 4 -6 -2 -5 -13z"/>
<path d="M1251 1024 c0 -11 3 -14 6 -6 3 7 2 16 -1 19 -3 4 -6 -2 -5 -13z"/>
<path d="M1311 1024 c0 -11 3 -14 6 -6 3 7 2 16 -1 19 -3 4 -6 -2 -5 -13z"/>
<path d="M1351 1024 c0 -11 3 -14 6 -6 3 7 2 16 -1 19 -3 4 -6 -2 -5 -13z"/>
<path d="M1371 1024 c0 -11 3 -14 6 -6 3 7 2 16 -1 19 -3 4 -6 -2 -5 -13z"/>
<path d="M1390 1023 c0 -15 2 -16 10 -3 9 13 11 13 20 0 8 -13 10 -12 10 3 0
10 -8 17 -20 17 -12 0 -20 -7 -20 -17z"/>
<path d="M1497 1022 c12 -13 16 -13 23 -2 7 11 12 11 23 2 10 -9 14 -9 14 1 0
8 -14 13 -38 13 -33 1 -35 -1 -22 -14z"/>
<path d="M1590 1025 c0 -6 6 -12 13 -12 8 0 14 6 14 12 0 6 -6 12 -14 12 -7 0
-13 -6 -13 -12z"/>
<path d="M1644 1022 c2 -21 21 -19 23 3 l3 20 -9 -20 c-6 -16 -9 -17 -13 -5
-3 8 -4 9 -4 2z"/>
<path d="M1699 1029 c14 -6 28 -6 33 -1 5 5 -5 9 -24 10 -31 0 -31 -1 -9 -9z"/>
<path d="M1482 1000 c0 -14 2 -19 5 -12 2 6 2 18 0 25 -3 6 -5 1 -5 -13z"/>
<path d="M2502 985 c-6 -14 -7 -25 -2 -25 9 0 25 39 18 46 -3 2 -10 -7 -16
-21z"/>
<path d="M1157 983 c-8 -7 21 -43 35 -43 4 0 8 7 8 15 0 8 -3 14 -7 14 -5 -1
-15 -1 -23 0 -13 1 -13 2 0 11 8 5 10 10 4 10 -6 0 -14 -3 -17 -7z"/>
<path d="M1362 965 c0 -16 2 -22 5 -12 2 9 2 23 0 30 -3 6 -5 -1 -5 -18z"/>
<path d="M1211 954 c0 -11 3 -14 6 -6 3 7 2 16 -1 19 -3 4 -6 -2 -5 -13z"/>
<path d="M1231 954 c0 -11 3 -14 6 -6 3 7 2 16 -1 19 -3 4 -6 -2 -5 -13z"/>
<path d="M1251 954 c0 -11 3 -14 6 -6 3 7 2 16 -1 19 -3 4 -6 -2 -5 -13z"/>
<path d="M1271 954 c0 -11 3 -14 6 -6 3 7 2 16 -1 19 -3 4 -6 -2 -5 -13z"/>
<path d="M1290 960 c0 -5 5 -10 11 -10 5 0 7 5 4 10 -3 6 -8 10 -11 10 -2 0
-4 -4 -4 -10z"/>
<path d="M1341 954 c0 -11 3 -14 6 -6 3 7 2 16 -1 19 -3 4 -6 -2 -5 -13z"/>
<path d="M1381 954 c0 -11 3 -14 6 -6 3 7 2 16 -1 19 -3 4 -6 -2 -5 -13z"/>
<path d="M1436 955 c4 -8 11 -15 16 -15 6 0 5 6 -2 15 -7 8 -14 15 -16 15 -2
0 -1 -7 2 -15z"/>
<path d="M1481 954 c0 -11 3 -14 6 -6 3 7 2 16 -1 19 -3 4 -6 -2 -5 -13z"/>
<path d="M1541 954 c0 -11 3 -14 6 -6 3 7 2 16 -1 19 -3 4 -6 -2 -5 -13z"/>
<path d="M1561 945 c0 -19 2 -25 8 -17 4 7 14 12 21 10 7 -2 15 4 17 12 4 13
3 13 -6 0 -9 -13 -11 -12 -11 5 0 15 -2 17 -9 6 -7 -11 -9 -11 -14 0 -3 8 -6
1 -6 -16z"/>
<path d="M1507 949 c7 -7 15 -10 18 -7 3 3 -2 9 -12 12 -14 6 -15 5 -6 -5z"/>
<path d="M1161 910 c0 -8 4 -22 9 -30 12 -18 12 -2 0 25 -6 13 -9 15 -9 5z"/>
<path d="M1382 895 c0 -16 2 -22 5 -12 2 9 2 23 0 30 -3 6 -5 -1 -5 -18z"/>
<path d="M1742 890 c0 -14 2 -19 5 -12 2 6 2 18 0 25 -3 6 -5 1 -5 -13z"/>
<path d="M1105 889 c-4 -6 -5 -12 -2 -15 2 -3 7 2 10 11 7 17 1 20 -8 4z"/>
<path d="M1205 890 c-3 -5 -2 -10 4 -10 5 0 13 5 16 10 3 6 2 10 -4 10 -5 0
-13 -4 -16 -10z"/>
<path d="M1241 884 c0 -11 3 -14 6 -6 3 7 2 16 -1 19 -3 4 -6 -2 -5 -13z"/>
<path d="M1261 884 c0 -11 3 -14 6 -6 3 7 2 16 -1 19 -3 4 -6 -2 -5 -13z"/>
<path d="M1281 884 c0 -11 3 -14 6 -6 3 7 2 16 -1 19 -3 4 -6 -2 -5 -13z"/>
<path d="M1311 884 c0 -11 3 -14 6 -6 3 7 2 16 -1 19 -3 4 -6 -2 -5 -13z"/>
<path d="M1361 884 c0 -11 3 -14 6 -6 3 7 2 16 -1 19 -3 4 -6 -2 -5 -13z"/>
<path d="M1401 884 c0 -11 3 -14 6 -6 3 7 2 16 -1 19 -3 4 -6 -2 -5 -13z"/>
<path d="M1460 885 c0 -8 4 -15 10 -15 5 0 7 7 4 15 -4 8 -8 15 -10 15 -2 0
-4 -7 -4 -15z"/>
<path d="M1501 884 c0 -11 3 -14 6 -6 3 7 2 16 -1 19 -3 4 -6 -2 -5 -13z"/>
<path d="M1561 884 c0 -11 3 -14 6 -6 3 7 2 16 -1 19 -3 4 -6 -2 -5 -13z"/>
<path d="M1621 884 c0 -11 3 -14 6 -6 3 7 2 16 -1 19 -3 4 -6 -2 -5 -13z"/>
<path d="M1641 884 c0 -11 3 -14 6 -6 3 7 2 16 -1 19 -3 4 -6 -2 -5 -13z"/>
<path d="M1661 884 c0 -11 3 -14 6 -6 3 7 2 16 -1 19 -3 4 -6 -2 -5 -13z"/>
<path d="M1690 885 c0 -8 2 -15 4 -15 2 0 6 7 10 15 3 8 1 15 -4 15 -6 0 -10
-7 -10 -15z"/>
<path d="M1721 884 c0 -11 3 -14 6 -6 3 7 2 16 -1 19 -3 4 -6 -2 -5 -13z"/>
<path d="M1760 891 c0 -5 7 -12 16 -15 14 -5 15 -4 4 9 -14 17 -20 19 -20 6z"/>
<path d="M1161 840 c0 -8 4 -22 9 -30 12 -18 12 -2 0 25 -6 13 -9 15 -9 5z"/>
<path d="M1372 834 c-7 -8 -11 -20 -9 -27 4 -8 6 -7 6 3 1 13 2 13 11 0 8 -12
10 -9 10 13 0 31 0 31 -18 11z"/>
<path d="M1570 825 c0 -14 2 -25 4 -25 2 0 6 11 8 25 3 14 1 25 -3 25 -5 0 -9
-11 -9 -25z"/>
<path d="M1105 819 c-4 -5 -4 -13 -1 -16 3 -4 6 0 6 8 0 11 2 11 10 -1 6 -9
10 -10 10 -3 0 17 -17 25 -25 12z"/>
<path d="M1205 820 c-3 -5 -2 -10 4 -10 5 0 13 5 16 10 3 6 2 10 -4 10 -5 0
-13 -4 -16 -10z"/>
<path d="M1242 810 c0 -14 2 -19 5 -12 2 6 2 18 0 25 -3 6 -5 1 -5 -13z"/>
<path d="M1261 814 c0 -11 3 -14 6 -6 3 7 2 16 -1 19 -3 4 -6 -2 -5 -13z"/>
<path d="M1280 816 c0 -8 4 -17 8 -20 4 -2 8 4 8 15 0 10 -4 19 -8 19 -4 0 -8
-6 -8 -14z"/>
<path d="M1310 816 c0 -8 4 -17 8 -20 4 -2 8 4 8 15 0 10 -4 19 -8 19 -4 0 -8
-6 -8 -14z"/>
<path d="M1400 816 c0 -8 4 -18 10 -21 6 -4 7 1 3 11 -4 12 -3 15 5 10 7 -4
12 -2 12 3 0 6 -7 11 -15 11 -8 0 -15 -6 -15 -14z"/>
<path d="M1462 805 c0 -16 2 -22 5 -12 2 9 2 23 0 30 -3 6 -5 -1 -5 -18z"/>
<path d="M1480 815 c0 -8 4 -15 8 -15 5 0 9 7 9 15 0 8 -4 15 -9 15 -4 0 -8
-7 -8 -15z"/>
<path d="M1505 821 c-3 -5 -1 -12 5 -16 5 -3 10 1 10 9 0 18 -6 21 -15 7z"/>
<path d="M1530 813 c0 -10 4 -14 8 -8 4 6 11 13 16 18 5 4 2 7 -7 7 -10 0 -17
-8 -17 -17z"/>
<path d="M1602 810 c0 -14 2 -19 5 -12 2 6 2 18 0 25 -3 6 -5 1 -5 -13z"/>
<path d="M1621 814 c0 -11 3 -14 6 -6 3 7 2 16 -1 19 -3 4 -6 -2 -5 -13z"/>
<path d="M1641 814 c0 -11 3 -14 6 -6 3 7 2 16 -1 19 -3 4 -6 -2 -5 -13z"/>
<path d="M1662 810 c0 -14 2 -19 5 -12 2 6 2 18 0 25 -3 6 -5 1 -5 -13z"/>
<path d="M1697 815 c-3 -6 3 -11 12 -11 10 0 18 5 18 11 0 7 -6 12 -13 12 -7
0 -15 -5 -17 -12z"/>
<path d="M53 630 c0 -36 2 -50 4 -32 2 17 2 47 0 65 -2 17 -4 3 -4 -33z"/>
<path d="M1025 670 c-3 -5 -1 -10 4 -10 6 0 11 5 11 10 0 6 -2 10 -4 10 -3 0
-8 -4 -11 -10z"/>
<path d="M1401 570 c-54 -34 -125 -110 -153 -165 -19 -37 -20 -39 -2 -25 22
17 48 44 75 79 25 31 33 23 14 -13 -24 -47 -17 -51 15 -10 17 22 41 51 55 65
23 24 52 86 44 93 -2 2 -24 -9 -48 -24z"/>
<path d="M1280 520 c-8 -5 -12 -12 -9 -15 4 -3 12 1 19 10 14 17 11 19 -10 5z"/>
<path d="M1226 503 c-4 -4 -16 -9 -27 -9 -37 -3 -39 -4 -39 -24 0 -27 40 -27
63 1 17 20 20 49 3 32z"/>
<path d="M1130 464 c0 -8 5 -12 10 -9 6 3 10 10 10 16 0 5 -4 9 -10 9 -5 0
-10 -7 -10 -16z"/>
<path d="M239 393 c-13 -17 -13 -17 6 -3 11 8 22 16 24 17 2 2 0 3 -6 3 -6 0
-17 -8 -24 -17z"/>
<path d="M180 390 c0 -5 5 -10 11 -10 5 0 7 5 4 10 -3 6 -8 10 -11 10 -2 0 -4
-4 -4 -10z"/>
<path d="M1812 348 c3 -7 13 -15 22 -16 12 -3 17 1 14 10 -3 7 -13 15 -22 16
-12 3 -17 -1 -14 -10z"/>
<path d="M1760 331 c0 -12 -60 -35 -86 -33 -13 1 -26 -3 -29 -8 -4 -6 -15 -6
-30 0 -18 7 -25 6 -25 -3 0 -8 26 -13 85 -15 78 -2 85 0 85 17 0 12 9 21 25
25 14 4 25 11 25 16 0 6 -11 10 -25 10 -14 0 -25 -4 -25 -9z"/>
<path d="M858 309 c91 -12 88 -11 200 -10 60 1 102 5 102 11 0 6 -67 10 -182
9 -144 -1 -170 -3 -120 -10z"/>
<path d="M1500 285 c0 -7 30 -13 34 -7 3 4 -4 9 -15 9 -10 1 -19 0 -19 -2z"/>
<path d="M233 174 c-3 -8 0 -26 8 -40 10 -20 15 -22 25 -12 12 13 17 32 15 56
-2 18 -41 15 -48 -4z m34 -20 c-9 -9 -28 6 -21 18 4 6 10 6 17 -1 6 -6 8 -13
4 -17z"/>
</g>
</svg>
